# xmcd CD database file
#
# Track frame offsets:
#	150
#	12495
#	28182
#	40170
#	55888
#	71700
#	86715
#	103580
#	115730
#	130732
#	142132
#	156007
#	167469
#	181351
#
# Disc length: 2603 seconds
#
# Revision: 0
# Processed by: cddbd v1.5.2PL0 Copyright (c) Steve Scherf et al.
# Submitted via: cdripper 1,0,43,1226
#
DISCID=be0a290e
DTITLE=Shelly West - The Very Best of Shelly West
DYEAR=2009
DGENRE=Country
TTITLE0=Jose Cuervo 
TTITLE1=Dark Side of the Moon 
TTITLE2=I'll Still Be Loving You 
TTITLE3=Flight 309 to Tennessee 
TTITLE4=Sexy Song 
TTITLE5=Someone's Been Sleeping in Our Bed 
TTITLE6=Suite Sixteen 
TTITLE7=Another Motel Memory 
TTITLE8=Now I Lay Me Down to Cheat 
TTITLE9=Somebody Buy This Cowgirl a Beer 
TTITLE10=If I Could Sing Something in Spanish 
TTITLE11=I'll Dance the Two Step 
TTITLE12=Now There's You 
TTITLE13=Don't Make Me Wait on the Moon 
EXTD=YEAR: 2009
EXTT0=
EXTT1=
EXTT2=
EXTT3=
EXTT4=
EXTT5=
EXTT6=
EXTT7=
EXTT8=
EXTT9=
EXTT10=
EXTT11=
EXTT12=
EXTT13=
PLAYORDER=
